<svg xmlns="http://www.w3.org/2000/svg" xmlns:xlink="http://www.w3.org/1999/xlink" width="600" zoomAndPan="magnify" viewBox="0 0 450 299.999988" height="400" preserveAspectRatio="xMidYMid meet" version="1.0"><defs><clipPath id="b8d70d73aa"><path d="M 124.34375 49.648438 L 325.34375 49.648438 L 325.34375 250.648438 L 124.34375 250.648438 Z M 124.34375 49.648438 " clip-rule="nonzero"/></clipPath><clipPath id="53188925d3"><path d="M 134 49.648438 L 325.34375 49.648438 L 325.34375 241 L 134 241 Z M 134 49.648438 " clip-rule="nonzero"/></clipPath><clipPath id="37a1af7b41"><path d="M 144 49.648438 L 325.34375 49.648438 L 325.34375 231 L 144 231 Z M 144 49.648438 " clip-rule="nonzero"/></clipPath><clipPath id="bf96d34d14"><path d="M 154 49.648438 L 325.34375 49.648438 L 325.34375 221 L 154 221 Z M 154 49.648438 " clip-rule="nonzero"/></clipPath><clipPath id="68450a6167"><path d="M 164 49.648438 L 325.34375 49.648438 L 325.34375 211 L 164 211 Z M 164 49.648438 " clip-rule="nonzero"/></clipPath><clipPath id="628a9b42a6"><path d="M 174 49.648438 L 325.34375 49.648438 L 325.34375 201 L 174 201 Z M 174 49.648438 " clip-rule="nonzero"/></clipPath><clipPath id="110df59ee9"><path d="M 184 49.648438 L 325.34375 49.648438 L 325.34375 191 L 184 191 Z M 184 49.648438 " clip-rule="nonzero"/></clipPath><clipPath id="5128350949"><path d="M 194 49.648438 L 325.34375 49.648438 L 325.34375 181 L 194 181 Z M 194 49.648438 " clip-rule="nonzero"/></clipPath><clipPath id="2f1b0e2854"><path d="M 204 49.648438 L 325.34375 49.648438 L 325.34375 171 L 204 171 Z M 204 49.648438 " clip-rule="nonzero"/></clipPath><clipPath id="25c19a0b9e"><path d="M 214 49.648438 L 325.34375 49.648438 L 325.34375 161 L 214 161 Z M 214 49.648438 " clip-rule="nonzero"/></clipPath></defs><g clip-path="url(#b8d70d73aa)"><path fill="#005c2b" d="M 325.648438 245.652344 L 325.648438 250.648438 L 124.34375 250.648438 L 124.34375 49.34375 L 129.339844 49.34375 L 129.339844 245.652344 Z M 325.648438 245.652344 " fill-opacity="1" fill-rule="nonzero"/></g><g clip-path="url(#53188925d3)"><path fill="#005c2b" d="M 325.648438 235.660156 L 325.648438 240.65625 L 134.335938 240.65625 L 134.335938 49.34375 L 139.332031 49.34375 L 139.332031 235.660156 Z M 325.648438 235.660156 " fill-opacity="1" fill-rule="nonzero"/></g><g clip-path="url(#37a1af7b41)"><path fill="#005c2b" d="M 325.648438 225.664062 L 325.648438 230.664062 L 144.332031 230.664062 L 144.332031 49.34375 L 149.328125 49.34375 L 149.328125 225.664062 Z M 325.648438 225.664062 " fill-opacity="1" fill-rule="nonzero"/></g><g clip-path="url(#bf96d34d14)"><path fill="#005c2b" d="M 325.648438 215.671875 L 325.648438 220.667969 L 154.324219 220.667969 L 154.324219 49.34375 L 159.320312 49.34375 L 159.320312 215.671875 Z M 325.648438 215.671875 " fill-opacity="1" fill-rule="nonzero"/></g><g clip-path="url(#68450a6167)"><path fill="#005c2b" d="M 325.648438 205.679688 L 325.648438 210.675781 L 164.316406 210.675781 L 164.316406 49.34375 L 169.3125 49.34375 L 169.3125 205.679688 Z M 325.648438 205.679688 " fill-opacity="1" fill-rule="nonzero"/></g><g clip-path="url(#628a9b42a6)"><path fill="#005c2b" d="M 325.375 195.6875 L 325.375 200.683594 L 174.308594 200.683594 L 174.308594 49.34375 L 179.304688 49.34375 L 179.304688 195.6875 Z M 325.375 195.6875 " fill-opacity="1" fill-rule="nonzero"/></g><g clip-path="url(#110df59ee9)"><path fill="#005c2b" d="M 325.648438 185.691406 L 325.648438 190.691406 L 184.304688 190.691406 L 184.304688 49.34375 L 189.300781 49.34375 L 189.300781 185.691406 Z M 325.648438 185.691406 " fill-opacity="1" fill-rule="nonzero"/></g><g clip-path="url(#5128350949)"><path fill="#005c2b" d="M 325.375 175.699219 L 325.375 180.695312 L 194.296875 180.695312 L 194.296875 49.34375 L 199.292969 49.34375 L 199.292969 175.699219 Z M 325.375 175.699219 " fill-opacity="1" fill-rule="nonzero"/></g><g clip-path="url(#2f1b0e2854)"><path fill="#005c2b" d="M 325.648438 165.707031 L 325.648438 170.703125 L 204.289062 170.703125 L 204.289062 49.34375 L 209.285156 49.34375 L 209.285156 165.707031 Z M 325.648438 165.707031 " fill-opacity="1" fill-rule="nonzero"/></g><g clip-path="url(#25c19a0b9e)"><path fill="#005c2b" d="M 325.648438 155.714844 L 325.648438 160.710938 L 214.28125 160.710938 L 214.28125 49.34375 L 219.277344 49.34375 L 219.277344 155.714844 Z M 325.648438 155.714844 " fill-opacity="1" fill-rule="nonzero"/></g></svg>