<svg xmlns="http://www.w3.org/2000/svg" xmlns:xlink="http://www.w3.org/1999/xlink" width="600" zoomAndPan="magnify" viewBox="0 0 450 299.999988" height="400" preserveAspectRatio="xMidYMid meet" version="1.0"><defs><clipPath id="b45afafc01"><path d="M 124.648438 49.34375 L 325.648438 49.34375 L 325.648438 250.34375 L 124.648438 250.34375 Z M 124.648438 49.34375 " clip-rule="nonzero"/></clipPath><clipPath id="496528c8b6"><path d="M 124.648438 59 L 316 59 L 316 250.34375 L 124.648438 250.34375 Z M 124.648438 59 " clip-rule="nonzero"/></clipPath><clipPath id="64edc9be2d"><path d="M 124.648438 69 L 306 69 L 306 250.34375 L 124.648438 250.34375 Z M 124.648438 69 " clip-rule="nonzero"/></clipPath><clipPath id="17c2e1b5b8"><path d="M 124.648438 79 L 296 79 L 296 250.34375 L 124.648438 250.34375 Z M 124.648438 79 " clip-rule="nonzero"/></clipPath><clipPath id="f1d3816a6a"><path d="M 124.648438 89 L 286 89 L 286 250.34375 L 124.648438 250.34375 Z M 124.648438 89 " clip-rule="nonzero"/></clipPath><clipPath id="b6ad54a977"><path d="M 124.648438 99 L 276 99 L 276 250.34375 L 124.648438 250.34375 Z M 124.648438 99 " clip-rule="nonzero"/></clipPath><clipPath id="ab49a3f139"><path d="M 124.648438 109 L 266 109 L 266 250.34375 L 124.648438 250.34375 Z M 124.648438 109 " clip-rule="nonzero"/></clipPath><clipPath id="fda9aa4eb4"><path d="M 124.648438 119 L 256 119 L 256 250.34375 L 124.648438 250.34375 Z M 124.648438 119 " clip-rule="nonzero"/></clipPath><clipPath id="2c49d4e3c2"><path d="M 124.648438 129 L 246 129 L 246 250.34375 L 124.648438 250.34375 Z M 124.648438 129 " clip-rule="nonzero"/></clipPath><clipPath id="e0bee24294"><path d="M 124.648438 139 L 236 139 L 236 250.34375 L 124.648438 250.34375 Z M 124.648438 139 " clip-rule="nonzero"/></clipPath></defs><g clip-path="url(#b45afafc01)"><path fill="#005c2b" d="M 124.34375 54.339844 L 124.34375 49.34375 L 325.648438 49.34375 L 325.648438 250.648438 L 320.652344 250.648438 L 320.652344 54.339844 Z M 124.34375 54.339844 " fill-opacity="1" fill-rule="nonzero"/></g><g clip-path="url(#496528c8b6)"><path fill="#005c2b" d="M 124.34375 64.332031 L 124.34375 59.335938 L 315.65625 59.335938 L 315.65625 250.648438 L 310.660156 250.648438 L 310.660156 64.332031 Z M 124.34375 64.332031 " fill-opacity="1" fill-rule="nonzero"/></g><g clip-path="url(#64edc9be2d)"><path fill="#005c2b" d="M 124.34375 74.328125 L 124.34375 69.332031 L 305.664062 69.332031 L 305.664062 250.648438 L 300.664062 250.648438 L 300.664062 74.328125 Z M 124.34375 74.328125 " fill-opacity="1" fill-rule="nonzero"/></g><g clip-path="url(#17c2e1b5b8)"><path fill="#005c2b" d="M 124.34375 84.320312 L 124.34375 79.324219 L 295.667969 79.324219 L 295.667969 250.648438 L 290.671875 250.648438 L 290.671875 84.320312 Z M 124.34375 84.320312 " fill-opacity="1" fill-rule="nonzero"/></g><g clip-path="url(#f1d3816a6a)"><path fill="#005c2b" d="M 124.34375 94.3125 L 124.34375 89.316406 L 285.675781 89.316406 L 285.675781 250.648438 L 280.679688 250.648438 L 280.679688 94.3125 Z M 124.34375 94.3125 " fill-opacity="1" fill-rule="nonzero"/></g><g clip-path="url(#b6ad54a977)"><path fill="#005c2b" d="M 124.617188 104.304688 L 124.617188 99.308594 L 275.683594 99.308594 L 275.683594 250.648438 L 270.6875 250.648438 L 270.6875 104.304688 Z M 124.617188 104.304688 " fill-opacity="1" fill-rule="nonzero"/></g><g clip-path="url(#ab49a3f139)"><path fill="#005c2b" d="M 124.34375 114.300781 L 124.34375 109.304688 L 265.691406 109.304688 L 265.691406 250.648438 L 260.691406 250.648438 L 260.691406 114.300781 Z M 124.34375 114.300781 " fill-opacity="1" fill-rule="nonzero"/></g><g clip-path="url(#fda9aa4eb4)"><path fill="#005c2b" d="M 124.617188 124.292969 L 124.617188 119.296875 L 255.695312 119.296875 L 255.695312 250.648438 L 250.699219 250.648438 L 250.699219 124.292969 Z M 124.617188 124.292969 " fill-opacity="1" fill-rule="nonzero"/></g><g clip-path="url(#2c49d4e3c2)"><path fill="#005c2b" d="M 124.34375 134.285156 L 124.34375 129.289062 L 245.703125 129.289062 L 245.703125 250.648438 L 240.707031 250.648438 L 240.707031 134.285156 Z M 124.34375 134.285156 " fill-opacity="1" fill-rule="nonzero"/></g><g clip-path="url(#e0bee24294)"><path fill="#005c2b" d="M 124.34375 144.277344 L 124.34375 139.28125 L 235.710938 139.28125 L 235.710938 250.648438 L 230.714844 250.648438 L 230.714844 144.277344 Z M 124.34375 144.277344 " fill-opacity="1" fill-rule="nonzero"/></g></svg>