<svg xmlns="http://www.w3.org/2000/svg" xmlns:xlink="http://www.w3.org/1999/xlink" width="600" zoomAndPan="magnify" viewBox="0 0 450 299.999988" height="400" preserveAspectRatio="xMidYMid meet" version="1.0"><defs><clipPath id="35660de1e9"><path d="M 124.429688 48.90625 L 259.429688 48.90625 L 259.429688 150.15625 L 124.429688 150.15625 Z M 124.429688 48.90625 " clip-rule="nonzero"/></clipPath><clipPath id="d22bd05c4d"><path d="M 131 55 L 259.429688 55 L 259.429688 150.15625 L 131 150.15625 Z M 131 55 " clip-rule="nonzero"/></clipPath><clipPath id="f981d39fe1"><path d="M 137 62 L 259.429688 62 L 259.429688 150.15625 L 137 150.15625 Z M 137 62 " clip-rule="nonzero"/></clipPath><clipPath id="0e4f0b191e"><path d="M 144 68 L 259.429688 68 L 259.429688 150.15625 L 144 150.15625 Z M 144 68 " clip-rule="nonzero"/></clipPath><clipPath id="9b64c4632a"><path d="M 151 75 L 259.429688 75 L 259.429688 150.15625 L 151 150.15625 Z M 151 75 " clip-rule="nonzero"/></clipPath><clipPath id="616b5d6026"><path d="M 157 82 L 259.429688 82 L 259.429688 150.15625 L 157 150.15625 Z M 157 82 " clip-rule="nonzero"/></clipPath><clipPath id="f03bb72449"><path d="M 164 89 L 259.429688 89 L 259.429688 150.15625 L 164 150.15625 Z M 164 89 " clip-rule="nonzero"/></clipPath><clipPath id="751fb34406"><path d="M 171 95 L 259.429688 95 L 259.429688 150.15625 L 171 150.15625 Z M 171 95 " clip-rule="nonzero"/></clipPath><clipPath id="02017a8762"><path d="M 178 102 L 259.429688 102 L 259.429688 150.15625 L 178 150.15625 Z M 178 102 " clip-rule="nonzero"/></clipPath><clipPath id="eda7e7f0f9"><path d="M 184 109 L 259.429688 109 L 259.429688 150.15625 L 184 150.15625 Z M 184 109 " clip-rule="nonzero"/></clipPath><clipPath id="423b9107bd"><path d="M 124.429688 149.914062 L 259.429688 149.914062 L 259.429688 251.09375 L 124.429688 251.09375 Z M 124.429688 149.914062 " clip-rule="nonzero"/></clipPath><clipPath id="5dccdcf3bc"><path d="M 131 149.914062 L 259.429688 149.914062 L 259.429688 245 L 131 245 Z M 131 149.914062 " clip-rule="nonzero"/></clipPath><clipPath id="365e6d736d"><path d="M 137 149.914062 L 259.429688 149.914062 L 259.429688 238 L 137 238 Z M 137 149.914062 " clip-rule="nonzero"/></clipPath><clipPath id="e0bd87845d"><path d="M 144 149.914062 L 259.429688 149.914062 L 259.429688 231 L 144 231 Z M 144 149.914062 " clip-rule="nonzero"/></clipPath><clipPath id="26cd983003"><path d="M 151 149.914062 L 259.429688 149.914062 L 259.429688 225 L 151 225 Z M 151 149.914062 " clip-rule="nonzero"/></clipPath><clipPath id="719a2b4101"><path d="M 157 149.914062 L 259.429688 149.914062 L 259.429688 218 L 157 218 Z M 157 149.914062 " clip-rule="nonzero"/></clipPath><clipPath id="e158eeba5a"><path d="M 164 149.914062 L 259.429688 149.914062 L 259.429688 211 L 164 211 Z M 164 149.914062 " clip-rule="nonzero"/></clipPath><clipPath id="324217d330"><path d="M 171 149.914062 L 259.429688 149.914062 L 259.429688 205 L 171 205 Z M 171 149.914062 " clip-rule="nonzero"/></clipPath><clipPath id="33b34a27ac"><path d="M 178 149.914062 L 259.429688 149.914062 L 259.429688 198 L 178 198 Z M 178 149.914062 " clip-rule="nonzero"/></clipPath><clipPath id="c3449e78a9"><path d="M 184 149.914062 L 259.429688 149.914062 L 259.429688 191 L 184 191 Z M 184 149.914062 " clip-rule="nonzero"/></clipPath><clipPath id="ae6a42e6a8"><path d="M 259.125 48.90625 L 325.875 48.90625 L 325.875 115.65625 L 259.125 115.65625 Z M 259.125 48.90625 " clip-rule="nonzero"/></clipPath><clipPath id="c2f64c025c"><path d="M 259.125 55 L 325.875 55 L 325.875 115.65625 L 259.125 115.65625 Z M 259.125 55 " clip-rule="nonzero"/></clipPath><clipPath id="22e01fa1b5"><path d="M 259.125 62 L 325.875 62 L 325.875 115.65625 L 259.125 115.65625 Z M 259.125 62 " clip-rule="nonzero"/></clipPath><clipPath id="f4494a2ed5"><path d="M 259.125 68 L 325.875 68 L 325.875 115.65625 L 259.125 115.65625 Z M 259.125 68 " clip-rule="nonzero"/></clipPath><clipPath id="acdf7d7191"><path d="M 259.125 75 L 325.875 75 L 325.875 115.65625 L 259.125 115.65625 Z M 259.125 75 " clip-rule="nonzero"/></clipPath><clipPath id="19b48e0784"><path d="M 259.125 82 L 325.875 82 L 325.875 115.65625 L 259.125 115.65625 Z M 259.125 82 " clip-rule="nonzero"/></clipPath><clipPath id="4620c57530"><path d="M 259.125 89 L 325.875 89 L 325.875 115.65625 L 259.125 115.65625 Z M 259.125 89 " clip-rule="nonzero"/></clipPath><clipPath id="eec435b486"><path d="M 259.125 95 L 325.875 95 L 325.875 115.65625 L 259.125 115.65625 Z M 259.125 95 " clip-rule="nonzero"/></clipPath><clipPath id="5b086cf4c4"><path d="M 259.125 102 L 325.875 102 L 325.875 115.65625 L 259.125 115.65625 Z M 259.125 102 " clip-rule="nonzero"/></clipPath><clipPath id="dffa9f4199"><path d="M 259.125 109 L 325.875 109 L 325.875 115.65625 L 259.125 115.65625 Z M 259.125 109 " clip-rule="nonzero"/></clipPath><clipPath id="1cc03775b9"><path d="M 259.125 184.6875 L 325.875 184.6875 L 325.875 251.085938 L 259.125 251.085938 Z M 259.125 184.6875 " clip-rule="nonzero"/></clipPath><clipPath id="40bc39f6e6"><path d="M 259.125 184.6875 L 325.875 184.6875 L 325.875 245 L 259.125 245 Z M 259.125 184.6875 " clip-rule="nonzero"/></clipPath><clipPath id="b5361bf141"><path d="M 259.125 184.6875 L 325.875 184.6875 L 325.875 238 L 259.125 238 Z M 259.125 184.6875 " clip-rule="nonzero"/></clipPath><clipPath id="20e3699951"><path d="M 259.125 184.6875 L 325.875 184.6875 L 325.875 231 L 259.125 231 Z M 259.125 184.6875 " clip-rule="nonzero"/></clipPath><clipPath id="44b28c615a"><path d="M 259.125 184.6875 L 325.875 184.6875 L 325.875 225 L 259.125 225 Z M 259.125 184.6875 " clip-rule="nonzero"/></clipPath><clipPath id="a27140d859"><path d="M 259.125 184.6875 L 325.875 184.6875 L 325.875 218 L 259.125 218 Z M 259.125 184.6875 " clip-rule="nonzero"/></clipPath><clipPath id="d7212911b9"><path d="M 259.125 184.6875 L 325.875 184.6875 L 325.875 211 L 259.125 211 Z M 259.125 184.6875 " clip-rule="nonzero"/></clipPath><clipPath id="7906f6a57a"><path d="M 259.125 184.6875 L 325.875 184.6875 L 325.875 205 L 259.125 205 Z M 259.125 184.6875 " clip-rule="nonzero"/></clipPath><clipPath id="6a99fc5c8f"><path d="M 259.125 184.6875 L 325.875 184.6875 L 325.875 198 L 259.125 198 Z M 259.125 184.6875 " clip-rule="nonzero"/></clipPath><clipPath id="9a1093bdc1"><path d="M 259.125 184.6875 L 325.875 184.6875 L 325.875 191 L 259.125 191 Z M 259.125 184.6875 " clip-rule="nonzero"/></clipPath></defs><g clip-path="url(#35660de1e9)"><path fill="#005c2b" d="M 127.78125 183.8125 L 124.429688 183.8125 L 124.429688 48.90625 L 259.335938 48.90625 L 259.335938 52.253906 L 127.78125 52.253906 Z M 127.78125 183.8125 " fill-opacity="1" fill-rule="nonzero"/></g><g clip-path="url(#d22bd05c4d)"><path fill="#005c2b" d="M 134.476562 183.8125 L 131.128906 183.8125 L 131.128906 55.605469 L 259.335938 55.605469 L 259.335938 58.953125 L 134.476562 58.953125 Z M 134.476562 183.8125 " fill-opacity="1" fill-rule="nonzero"/></g><g clip-path="url(#f981d39fe1)"><path fill="#005c2b" d="M 141.175781 183.8125 L 137.824219 183.8125 L 137.824219 62.300781 L 259.335938 62.300781 L 259.335938 65.648438 L 141.175781 65.648438 Z M 141.175781 183.8125 " fill-opacity="1" fill-rule="nonzero"/></g><g clip-path="url(#0e4f0b191e)"><path fill="#005c2b" d="M 147.871094 183.8125 L 144.523438 183.8125 L 144.523438 68.996094 L 259.335938 68.996094 L 259.335938 72.347656 L 147.871094 72.347656 Z M 147.871094 183.8125 " fill-opacity="1" fill-rule="nonzero"/></g><g clip-path="url(#9b64c4632a)"><path fill="#005c2b" d="M 154.566406 183.8125 L 151.21875 183.8125 L 151.21875 75.695312 L 259.335938 75.695312 L 259.335938 79.042969 L 154.566406 79.042969 Z M 154.566406 183.8125 " fill-opacity="1" fill-rule="nonzero"/></g><g clip-path="url(#616b5d6026)"><path fill="#005c2b" d="M 161.265625 183.628906 L 157.917969 183.628906 L 157.917969 82.390625 L 259.335938 82.390625 L 259.335938 85.738281 L 161.265625 85.738281 Z M 161.265625 183.628906 " fill-opacity="1" fill-rule="nonzero"/></g><g clip-path="url(#f03bb72449)"><path fill="#005c2b" d="M 167.960938 183.8125 L 164.613281 183.8125 L 164.613281 89.089844 L 259.335938 89.089844 L 259.335938 92.4375 L 167.960938 92.4375 Z M 167.960938 183.8125 " fill-opacity="1" fill-rule="nonzero"/></g><g clip-path="url(#751fb34406)"><path fill="#005c2b" d="M 174.660156 183.628906 L 171.3125 183.628906 L 171.3125 95.785156 L 259.335938 95.785156 L 259.335938 99.132812 L 174.660156 99.132812 Z M 174.660156 183.628906 " fill-opacity="1" fill-rule="nonzero"/></g><g clip-path="url(#02017a8762)"><path fill="#005c2b" d="M 181.355469 183.8125 L 178.007812 183.8125 L 178.007812 102.484375 L 259.335938 102.484375 L 259.335938 105.832031 L 181.355469 105.832031 Z M 181.355469 183.8125 " fill-opacity="1" fill-rule="nonzero"/></g><g clip-path="url(#eda7e7f0f9)"><path fill="#005c2b" d="M 188.054688 183.8125 L 184.703125 183.8125 L 184.703125 109.179688 L 259.335938 109.179688 L 259.335938 112.527344 L 188.054688 112.527344 Z M 188.054688 183.8125 " fill-opacity="1" fill-rule="nonzero"/></g><g clip-path="url(#423b9107bd)"><path fill="#005c2b" d="M 127.78125 116.1875 L 124.429688 116.1875 L 124.429688 251.09375 L 259.335938 251.09375 L 259.335938 247.746094 L 127.78125 247.746094 Z M 127.78125 116.1875 " fill-opacity="1" fill-rule="nonzero"/></g><g clip-path="url(#5dccdcf3bc)"><path fill="#005c2b" d="M 134.476562 116.1875 L 131.128906 116.1875 L 131.128906 244.394531 L 259.335938 244.394531 L 259.335938 241.046875 L 134.476562 241.046875 Z M 134.476562 116.1875 " fill-opacity="1" fill-rule="nonzero"/></g><g clip-path="url(#365e6d736d)"><path fill="#005c2b" d="M 141.175781 116.1875 L 137.824219 116.1875 L 137.824219 237.699219 L 259.335938 237.699219 L 259.335938 234.351562 L 141.175781 234.351562 Z M 141.175781 116.1875 " fill-opacity="1" fill-rule="nonzero"/></g><g clip-path="url(#e0bd87845d)"><path fill="#005c2b" d="M 147.871094 116.1875 L 144.523438 116.1875 L 144.523438 231 L 259.335938 231 L 259.335938 227.652344 L 147.871094 227.652344 Z M 147.871094 116.1875 " fill-opacity="1" fill-rule="nonzero"/></g><g clip-path="url(#26cd983003)"><path fill="#005c2b" d="M 154.566406 116.1875 L 151.21875 116.1875 L 151.21875 224.304688 L 259.335938 224.304688 L 259.335938 220.957031 L 154.566406 220.957031 Z M 154.566406 116.1875 " fill-opacity="1" fill-rule="nonzero"/></g><g clip-path="url(#719a2b4101)"><path fill="#005c2b" d="M 161.265625 116.371094 L 157.917969 116.371094 L 157.917969 217.609375 L 259.335938 217.609375 L 259.335938 214.257812 L 161.265625 214.257812 Z M 161.265625 116.371094 " fill-opacity="1" fill-rule="nonzero"/></g><g clip-path="url(#e158eeba5a)"><path fill="#005c2b" d="M 167.960938 116.1875 L 164.613281 116.1875 L 164.613281 210.910156 L 259.335938 210.910156 L 259.335938 207.5625 L 167.960938 207.5625 Z M 167.960938 116.1875 " fill-opacity="1" fill-rule="nonzero"/></g><g clip-path="url(#324217d330)"><path fill="#005c2b" d="M 174.660156 116.371094 L 171.3125 116.371094 L 171.3125 204.214844 L 259.335938 204.214844 L 259.335938 200.863281 L 174.660156 200.863281 Z M 174.660156 116.371094 " fill-opacity="1" fill-rule="nonzero"/></g><g clip-path="url(#33b34a27ac)"><path fill="#005c2b" d="M 181.355469 116.1875 L 178.007812 116.1875 L 178.007812 197.515625 L 259.335938 197.515625 L 259.335938 194.167969 L 181.355469 194.167969 Z M 181.355469 116.1875 " fill-opacity="1" fill-rule="nonzero"/></g><g clip-path="url(#c3449e78a9)"><path fill="#005c2b" d="M 188.054688 116.1875 L 184.703125 116.1875 L 184.703125 190.820312 L 259.335938 190.820312 L 259.335938 187.472656 L 188.054688 187.472656 Z M 188.054688 116.1875 " fill-opacity="1" fill-rule="nonzero"/></g><g clip-path="url(#ae6a42e6a8)"><path fill="#005c2b" d="M 390.675781 183.8125 L 394.027344 183.8125 L 394.027344 48.90625 L 259.121094 48.90625 L 259.121094 52.253906 L 390.675781 52.253906 Z M 390.675781 183.8125 " fill-opacity="1" fill-rule="nonzero"/></g><g clip-path="url(#c2f64c025c)"><path fill="#005c2b" d="M 383.980469 183.8125 L 387.328125 183.8125 L 387.328125 55.605469 L 259.121094 55.605469 L 259.121094 58.953125 L 383.980469 58.953125 Z M 383.980469 183.8125 " fill-opacity="1" fill-rule="nonzero"/></g><g clip-path="url(#22e01fa1b5)"><path fill="#005c2b" d="M 377.28125 183.8125 L 380.632812 183.8125 L 380.632812 62.300781 L 259.121094 62.300781 L 259.121094 65.648438 L 377.28125 65.648438 Z M 377.28125 183.8125 " fill-opacity="1" fill-rule="nonzero"/></g><g clip-path="url(#f4494a2ed5)"><path fill="#005c2b" d="M 370.585938 183.8125 L 373.933594 183.8125 L 373.933594 68.996094 L 259.121094 68.996094 L 259.121094 72.347656 L 370.585938 72.347656 Z M 370.585938 183.8125 " fill-opacity="1" fill-rule="nonzero"/></g><g clip-path="url(#acdf7d7191)"><path fill="#005c2b" d="M 363.890625 183.8125 L 367.238281 183.8125 L 367.238281 75.695312 L 259.121094 75.695312 L 259.121094 79.042969 L 363.890625 79.042969 Z M 363.890625 183.8125 " fill-opacity="1" fill-rule="nonzero"/></g><g clip-path="url(#19b48e0784)"><path fill="#005c2b" d="M 357.191406 183.628906 L 360.539062 183.628906 L 360.539062 82.390625 L 259.121094 82.390625 L 259.121094 85.738281 L 357.191406 85.738281 Z M 357.191406 183.628906 " fill-opacity="1" fill-rule="nonzero"/></g><g clip-path="url(#4620c57530)"><path fill="#005c2b" d="M 350.496094 183.8125 L 353.84375 183.8125 L 353.84375 89.089844 L 259.121094 89.089844 L 259.121094 92.4375 L 350.496094 92.4375 Z M 350.496094 183.8125 " fill-opacity="1" fill-rule="nonzero"/></g><g clip-path="url(#eec435b486)"><path fill="#005c2b" d="M 343.796875 183.628906 L 347.144531 183.628906 L 347.144531 95.785156 L 259.121094 95.785156 L 259.121094 99.132812 L 343.796875 99.132812 Z M 343.796875 183.628906 " fill-opacity="1" fill-rule="nonzero"/></g><g clip-path="url(#5b086cf4c4)"><path fill="#005c2b" d="M 337.101562 183.8125 L 340.449219 183.8125 L 340.449219 102.484375 L 259.121094 102.484375 L 259.121094 105.832031 L 337.101562 105.832031 Z M 337.101562 183.8125 " fill-opacity="1" fill-rule="nonzero"/></g><g clip-path="url(#dffa9f4199)"><path fill="#005c2b" d="M 330.402344 183.8125 L 333.753906 183.8125 L 333.753906 109.179688 L 259.121094 109.179688 L 259.121094 112.527344 L 330.402344 112.527344 Z M 330.402344 183.8125 " fill-opacity="1" fill-rule="nonzero"/></g><g clip-path="url(#1cc03775b9)"><path fill="#005c2b" d="M 390.675781 116.179688 L 394.027344 116.179688 L 394.027344 251.085938 L 259.121094 251.085938 L 259.121094 247.738281 L 390.675781 247.738281 Z M 390.675781 116.179688 " fill-opacity="1" fill-rule="nonzero"/></g><g clip-path="url(#40bc39f6e6)"><path fill="#005c2b" d="M 383.980469 116.179688 L 387.328125 116.179688 L 387.328125 244.390625 L 259.121094 244.390625 L 259.121094 241.042969 L 383.980469 241.042969 Z M 383.980469 116.179688 " fill-opacity="1" fill-rule="nonzero"/></g><g clip-path="url(#b5361bf141)"><path fill="#005c2b" d="M 377.28125 116.179688 L 380.632812 116.179688 L 380.632812 237.691406 L 259.121094 237.691406 L 259.121094 234.34375 L 377.28125 234.34375 Z M 377.28125 116.179688 " fill-opacity="1" fill-rule="nonzero"/></g><g clip-path="url(#20e3699951)"><path fill="#005c2b" d="M 370.585938 116.179688 L 373.933594 116.179688 L 373.933594 230.996094 L 259.121094 230.996094 L 259.121094 227.648438 L 370.585938 227.648438 Z M 370.585938 116.179688 " fill-opacity="1" fill-rule="nonzero"/></g><g clip-path="url(#44b28c615a)"><path fill="#005c2b" d="M 363.890625 116.179688 L 367.238281 116.179688 L 367.238281 224.300781 L 259.121094 224.300781 L 259.121094 220.949219 L 363.890625 220.949219 Z M 363.890625 116.179688 " fill-opacity="1" fill-rule="nonzero"/></g><g clip-path="url(#a27140d859)"><path fill="#005c2b" d="M 357.191406 116.363281 L 360.539062 116.363281 L 360.539062 217.601562 L 259.121094 217.601562 L 259.121094 214.253906 L 357.191406 214.253906 Z M 357.191406 116.363281 " fill-opacity="1" fill-rule="nonzero"/></g><g clip-path="url(#d7212911b9)"><path fill="#005c2b" d="M 350.496094 116.179688 L 353.84375 116.179688 L 353.84375 210.90625 L 259.121094 210.90625 L 259.121094 207.554688 L 350.496094 207.554688 Z M 350.496094 116.179688 " fill-opacity="1" fill-rule="nonzero"/></g><g clip-path="url(#7906f6a57a)"><path fill="#005c2b" d="M 343.796875 116.363281 L 347.144531 116.363281 L 347.144531 204.207031 L 259.121094 204.207031 L 259.121094 200.859375 L 343.796875 200.859375 Z M 343.796875 116.363281 " fill-opacity="1" fill-rule="nonzero"/></g><g clip-path="url(#6a99fc5c8f)"><path fill="#005c2b" d="M 337.101562 116.179688 L 340.449219 116.179688 L 340.449219 197.511719 L 259.121094 197.511719 L 259.121094 194.164062 L 337.101562 194.164062 Z M 337.101562 116.179688 " fill-opacity="1" fill-rule="nonzero"/></g><g clip-path="url(#9a1093bdc1)"><path fill="#005c2b" d="M 330.402344 116.179688 L 333.753906 116.179688 L 333.753906 190.8125 L 259.121094 190.8125 L 259.121094 187.464844 L 330.402344 187.464844 Z M 330.402344 116.179688 " fill-opacity="1" fill-rule="nonzero"/></g></svg>