<svg xmlns="http://www.w3.org/2000/svg" xmlns:xlink="http://www.w3.org/1999/xlink" width="700" zoomAndPan="magnify" viewBox="0 0 525 112.499997" height="150" preserveAspectRatio="xMidYMid meet" version="1.0"><defs><clipPath id="d730e4cf60"><path d="M 10.878906 14.386719 L 97.292969 14.386719 L 97.292969 100.800781 L 10.878906 100.800781 Z M 10.878906 14.386719 " clip-rule="nonzero"/></clipPath><clipPath id="a8b196c4bc"><path d="M 54.085938 14.386719 C 30.222656 14.386719 10.878906 33.730469 10.878906 57.59375 C 10.878906 81.457031 30.222656 100.800781 54.085938 100.800781 C 77.949219 100.800781 97.292969 81.457031 97.292969 57.59375 C 97.292969 33.730469 77.949219 14.386719 54.085938 14.386719 Z M 54.085938 14.386719 " clip-rule="nonzero"/></clipPath><clipPath id="f2995d1ba4"><path d="M 6 17 L 84.789062 17 L 84.789062 91.328125 L 6 91.328125 Z M 6 17 " clip-rule="nonzero"/></clipPath><clipPath id="e2313a8d8c"><path d="M 6 19 L 84.789062 19 L 84.789062 91.328125 L 6 91.328125 Z M 6 19 " clip-rule="nonzero"/></clipPath><clipPath id="2490f455da"><path d="M 65 9.195312 L 78 9.195312 L 78 20 L 65 20 Z M 65 9.195312 " clip-rule="nonzero"/></clipPath><clipPath id="fa4696ce0b"><path d="M 65 9.195312 L 74 9.195312 L 74 16 L 65 16 Z M 65 9.195312 " clip-rule="nonzero"/></clipPath><clipPath id="a4cba739e4"><path d="M 124.039062 36.210938 L 507.085938 36.210938 L 507.085938 75.785156 L 124.039062 75.785156 Z M 124.039062 36.210938 " clip-rule="nonzero"/></clipPath></defs><g clip-path="url(#d730e4cf60)"><g clip-path="url(#a8b196c4bc)"><path fill="#4dc591" d="M 10.878906 14.386719 L 97.292969 14.386719 L 97.292969 100.800781 L 10.878906 100.800781 Z M 10.878906 14.386719 " fill-opacity="1" fill-rule="nonzero"/></g></g><g clip-path="url(#f2995d1ba4)"><path fill="#ffe104" d="M 8.371094 71.582031 C 10.144531 70.382812 12.304688 71.035156 14.230469 71.394531 C 16.632812 71.839844 19.082031 72.03125 21.523438 72.0625 C 47.503906 72.398438 68.832031 51.453125 69.167969 25.28125 C 69.195312 22.960938 69.058594 20.679688 68.765625 18.445312 C 69.992188 17.902344 71.304688 17.550781 72.570312 17.363281 C 72.988281 17.300781 75.96875 16.949219 77.492188 19.445312 C 82.320312 27.378906 85.035156 36.03125 84.933594 44.238281 C 84.597656 70.414062 63.265625 91.359375 37.285156 91.023438 C 27.894531 90.898438 14.851562 88.09375 8.4375 80.492188 C 6.847656 78.609375 6.035156 75.625 6.941406 73.363281 C 7.167969 72.800781 7.519531 72.296875 7.96875 71.898438 C 8.101562 71.78125 8.234375 71.675781 8.371094 71.582031 Z M 8.371094 71.582031 " fill-opacity="1" fill-rule="nonzero"/></g><g clip-path="url(#e2313a8d8c)"><path fill="#f8ab44" d="M 32.800781 82.898438 C 58.785156 83.234375 80.113281 62.289062 80.449219 36.117188 C 80.519531 30.324219 79.976562 25.265625 77.492188 19.445312 C 77.492188 19.445312 77.257812 19.058594 77.492188 19.445312 C 82.320312 27.375 85.035156 36.027344 84.933594 44.234375 C 84.597656 70.410156 63.265625 91.355469 37.285156 91.019531 C 27.894531 90.898438 14.851562 88.089844 8.4375 80.488281 C 7.199219 79.023438 6.4375 76.890625 6.585938 74.945312 C 13.507812 80.613281 24.558594 82.792969 32.800781 82.898438 Z M 32.800781 82.898438 " fill-opacity="1" fill-rule="nonzero"/></g><g clip-path="url(#2490f455da)"><path fill="#ffcf15" d="M 68.90625 19.636719 C 68.90625 19.636719 67.875 15.027344 65.757812 10.570312 L 70.320312 9.207031 C 70.320312 9.207031 73.800781 14.40625 77.492188 19.445312 Z M 68.90625 19.636719 " fill-opacity="1" fill-rule="nonzero"/></g><g clip-path="url(#fa4696ce0b)"><path fill="#353435" d="M 67.703125 15.449219 C 67.210938 13.972656 66.558594 12.261719 65.757812 10.570312 L 70.320312 9.207031 C 70.320312 9.207031 71.828125 11.460938 73.910156 14.4375 C 71.875 14.914062 69.773438 15.320312 67.703125 15.449219 Z M 67.703125 15.449219 " fill-opacity="1" fill-rule="nonzero"/></g><g clip-path="url(#a4cba739e4)"><path fill="#191b32" d="M 138.664062 46.53125 C 141.171875 46.53125 143.398438 47.089844 145.347656 48.34375 C 147.300781 49.59375 148.832031 51.265625 149.945312 53.492188 C 151.058594 55.71875 151.617188 58.226562 151.617188 61.148438 C 151.617188 64.074219 151.058594 66.578125 149.945312 68.808594 C 148.832031 71.035156 147.300781 72.707031 145.347656 73.957031 C 143.398438 75.210938 141.308594 75.769531 138.941406 75.769531 C 137.550781 75.769531 136.15625 75.488281 135.042969 75.070312 C 133.789062 74.652344 132.675781 74.097656 131.839844 73.261719 C 130.863281 72.566406 130.167969 71.871094 129.609375 71.171875 C 129.050781 70.476562 128.914062 69.78125 128.914062 69.363281 L 130.585938 68.667969 L 130.585938 72.566406 C 130.585938 73.539062 130.304688 74.238281 129.75 74.792969 C 129.191406 75.351562 128.355469 75.769531 127.519531 75.769531 C 126.546875 75.769531 125.847656 75.488281 125.292969 74.933594 C 124.734375 74.375 124.457031 73.539062 124.457031 72.566406 L 124.457031 39.433594 C 124.457031 38.457031 124.734375 37.761719 125.292969 37.203125 C 125.847656 36.648438 126.683594 36.230469 127.519531 36.230469 C 128.496094 36.230469 129.191406 36.507812 129.75 37.203125 C 130.304688 37.761719 130.585938 38.597656 130.585938 39.433594 L 130.585938 52.796875 L 129.75 52.378906 C 129.75 51.960938 130.027344 51.40625 130.445312 50.707031 C 131.003906 50.011719 131.558594 49.457031 132.394531 48.757812 C 133.230469 48.0625 134.207031 47.507812 135.320312 47.089844 C 136.433594 46.671875 137.550781 46.394531 138.804688 46.394531 Z M 137.828125 52.238281 C 136.296875 52.238281 134.902344 52.65625 133.789062 53.355469 C 132.675781 54.1875 131.699219 55.164062 131.003906 56.554688 C 130.304688 57.808594 130.027344 59.339844 130.027344 61.011719 C 130.027344 62.679688 130.304688 64.210938 131.003906 65.464844 C 131.699219 66.859375 132.535156 67.832031 133.789062 68.667969 C 134.902344 69.503906 136.296875 69.78125 137.828125 69.78125 C 139.359375 69.78125 140.753906 69.363281 141.867188 68.667969 C 142.980469 67.832031 143.957031 66.859375 144.511719 65.464844 C 145.210938 64.074219 145.488281 62.542969 145.488281 61.011719 C 145.488281 59.339844 145.210938 57.808594 144.511719 56.554688 C 143.816406 55.304688 142.980469 54.1875 141.867188 53.355469 C 140.753906 52.519531 139.359375 52.238281 137.828125 52.238281 Z M 180.3125 46.53125 C 181.285156 46.53125 181.984375 46.8125 182.539062 47.367188 C 183.097656 47.925781 183.375 48.757812 183.375 49.734375 L 183.375 72.007812 C 183.375 72.984375 183.097656 73.679688 182.539062 74.238281 C 181.984375 74.792969 181.148438 75.210938 180.3125 75.210938 C 179.335938 75.210938 178.640625 74.933594 178.082031 74.238281 C 177.527344 73.679688 177.246094 72.84375 177.246094 72.007812 L 177.246094 69.363281 L 178.359375 69.78125 C 178.359375 70.199219 178.082031 70.757812 177.664062 71.453125 C 177.109375 72.148438 176.550781 72.707031 175.714844 73.402344 C 174.878906 74.097656 173.902344 74.515625 172.789062 75.070312 C 171.675781 75.488281 170.421875 75.769531 169.027344 75.769531 C 166.660156 75.769531 164.433594 75.210938 162.480469 73.957031 C 160.53125 72.707031 159 71.035156 157.746094 68.808594 C 156.632812 66.578125 156.074219 64.074219 156.074219 61.289062 C 156.074219 58.367188 156.632812 55.859375 157.746094 53.632812 C 158.859375 51.40625 160.394531 49.734375 162.34375 48.480469 C 164.292969 47.226562 166.382812 46.671875 168.75 46.671875 C 170.28125 46.671875 171.675781 46.949219 172.929688 47.367188 C 174.183594 47.785156 175.296875 48.34375 176.273438 49.175781 C 177.246094 49.875 177.941406 50.570312 178.5 51.265625 C 179.058594 51.960938 179.195312 52.65625 179.195312 53.074219 L 177.246094 53.773438 L 177.246094 49.875 C 177.246094 48.898438 177.527344 48.203125 178.082031 47.644531 C 178.640625 47.089844 179.476562 46.671875 180.3125 46.671875 Z M 169.585938 69.921875 C 171.117188 69.921875 172.511719 69.503906 173.625 68.808594 C 174.738281 67.972656 175.714844 66.996094 176.410156 65.605469 C 177.109375 64.210938 177.386719 62.820312 177.386719 61.148438 C 177.386719 59.480469 177.109375 57.949219 176.410156 56.554688 C 175.714844 55.164062 174.878906 54.1875 173.625 53.355469 C 172.511719 52.519531 171.117188 52.238281 169.585938 52.238281 C 168.054688 52.238281 166.800781 52.65625 165.546875 53.355469 C 164.433594 54.1875 163.457031 55.164062 162.761719 56.554688 C 162.0625 57.949219 161.785156 59.339844 161.785156 61.148438 C 161.785156 62.820312 162.0625 64.351562 162.761719 65.605469 C 163.457031 66.996094 164.292969 67.972656 165.546875 68.808594 C 166.660156 69.640625 168.054688 69.921875 169.585938 69.921875 Z M 205.382812 46.53125 C 208.03125 46.53125 209.980469 47.089844 211.371094 48.203125 C 212.765625 49.316406 213.601562 50.707031 214.160156 52.519531 C 214.714844 54.328125 214.855469 56.277344 214.855469 58.503906 L 214.855469 72.007812 C 214.855469 72.984375 214.578125 73.679688 214.019531 74.238281 C 213.460938 74.792969 212.625 75.210938 211.789062 75.210938 C 210.816406 75.210938 210.121094 74.933594 209.5625 74.238281 C 209.003906 73.679688 208.726562 72.84375 208.726562 72.007812 L 208.726562 58.503906 C 208.726562 57.390625 208.585938 56.277344 208.308594 55.304688 C 208.03125 54.328125 207.472656 53.632812 206.636719 53.074219 C 205.800781 52.519531 204.6875 52.238281 203.292969 52.238281 C 201.902344 52.238281 200.648438 52.519531 199.671875 53.074219 C 198.699219 53.632812 198 54.328125 197.445312 55.304688 C 196.886719 56.277344 196.746094 57.25 196.746094 58.503906 L 196.746094 72.007812 C 196.746094 72.984375 196.46875 73.679688 195.910156 74.238281 C 195.355469 74.792969 194.519531 75.210938 193.683594 75.210938 C 192.707031 75.210938 192.011719 74.933594 191.453125 74.238281 C 190.898438 73.679688 190.617188 72.84375 190.617188 72.007812 L 190.617188 50.152344 C 190.617188 49.175781 190.898438 48.480469 191.453125 47.925781 C 192.011719 47.367188 192.847656 46.949219 193.683594 46.949219 C 194.65625 46.949219 195.355469 47.226562 195.910156 47.925781 C 196.46875 48.480469 196.746094 49.316406 196.746094 50.152344 L 196.746094 52.378906 L 195.910156 52.238281 C 196.191406 51.683594 196.746094 50.988281 197.304688 50.292969 C 197.863281 49.59375 198.558594 48.898438 199.394531 48.34375 C 200.230469 47.785156 201.066406 47.226562 202.179688 46.949219 C 203.15625 46.53125 204.269531 46.394531 205.523438 46.394531 Z M 244.941406 46.53125 C 245.917969 46.53125 246.613281 46.8125 247.171875 47.367188 C 247.726562 47.925781 248.007812 48.757812 248.007812 49.734375 L 248.007812 72.007812 C 248.007812 72.984375 247.726562 73.679688 247.171875 74.238281 C 246.613281 74.792969 245.777344 75.210938 244.941406 75.210938 C 243.964844 75.210938 243.269531 74.933594 242.714844 74.238281 C 242.15625 73.679688 241.878906 72.84375 241.878906 72.007812 L 241.878906 69.363281 L 242.992188 69.78125 C 242.992188 70.199219 242.714844 70.757812 242.296875 71.453125 C 241.738281 72.148438 241.179688 72.707031 240.34375 73.402344 C 239.507812 74.097656 238.535156 74.515625 237.421875 75.070312 C 236.304688 75.488281 235.050781 75.769531 233.660156 75.769531 C 231.292969 75.769531 229.0625 75.210938 227.113281 73.957031 C 225.164062 72.707031 223.628906 71.035156 222.375 68.808594 C 221.261719 66.578125 220.707031 64.074219 220.707031 61.289062 C 220.707031 58.367188 221.261719 55.859375 222.375 53.632812 C 223.492188 51.40625 225.023438 49.734375 226.972656 48.480469 C 228.921875 47.226562 231.011719 46.671875 233.378906 46.671875 C 234.914062 46.671875 236.304688 46.949219 237.558594 47.367188 C 238.8125 47.785156 239.925781 48.34375 240.902344 49.175781 C 241.878906 49.875 242.574219 50.570312 243.132812 51.265625 C 243.6875 51.960938 243.828125 52.65625 243.828125 53.074219 L 241.878906 53.773438 L 241.878906 49.875 C 241.878906 48.898438 242.15625 48.203125 242.714844 47.644531 C 243.269531 47.089844 244.105469 46.671875 244.941406 46.671875 Z M 234.214844 69.921875 C 235.75 69.921875 237.140625 69.503906 238.253906 68.808594 C 239.371094 67.972656 240.34375 66.996094 241.042969 65.605469 C 241.738281 64.210938 242.015625 62.820312 242.015625 61.148438 C 242.015625 59.480469 241.738281 57.949219 241.042969 56.554688 C 240.34375 55.164062 239.507812 54.1875 238.253906 53.355469 C 237.140625 52.519531 235.75 52.238281 234.214844 52.238281 C 232.683594 52.238281 231.429688 52.65625 230.175781 53.355469 C 229.0625 54.1875 228.085938 55.164062 227.390625 56.554688 C 226.695312 57.949219 226.417969 59.339844 226.417969 61.148438 C 226.417969 62.820312 226.695312 64.351562 227.390625 65.605469 C 228.085938 66.996094 228.921875 67.972656 230.175781 68.808594 C 231.292969 69.640625 232.683594 69.921875 234.214844 69.921875 Z M 270.015625 46.53125 C 272.660156 46.53125 274.609375 47.089844 276.003906 48.203125 C 277.394531 49.316406 278.230469 50.707031 278.789062 52.519531 C 279.347656 54.328125 279.484375 56.277344 279.484375 58.503906 L 279.484375 72.007812 C 279.484375 72.984375 279.207031 73.679688 278.648438 74.238281 C 278.09375 74.792969 277.257812 75.210938 276.421875 75.210938 C 275.445312 75.210938 274.75 74.933594 274.191406 74.238281 C 273.636719 73.679688 273.355469 72.84375 273.355469 72.007812 L 273.355469 58.503906 C 273.355469 57.390625 273.21875 56.277344 272.9375 55.304688 C 272.660156 54.328125 272.101562 53.632812 271.269531 53.074219 C 270.433594 52.519531 269.316406 52.238281 267.925781 52.238281 C 266.53125 52.238281 265.277344 52.519531 264.304688 53.074219 C 263.328125 53.632812 262.632812 54.328125 262.074219 55.304688 C 261.515625 56.277344 261.378906 57.25 261.378906 58.503906 L 261.378906 72.007812 C 261.378906 72.984375 261.097656 73.679688 260.542969 74.238281 C 259.984375 74.792969 259.148438 75.210938 258.3125 75.210938 C 257.339844 75.210938 256.640625 74.933594 256.085938 74.238281 C 255.527344 73.679688 255.25 72.84375 255.25 72.007812 L 255.25 50.152344 C 255.25 49.175781 255.527344 48.480469 256.085938 47.925781 C 256.640625 47.367188 257.476562 46.949219 258.3125 46.949219 C 259.289062 46.949219 259.984375 47.226562 260.542969 47.925781 C 261.097656 48.480469 261.378906 49.316406 261.378906 50.152344 L 261.378906 52.378906 L 260.542969 52.238281 C 260.820312 51.683594 261.378906 50.988281 261.933594 50.292969 C 262.492188 49.59375 263.1875 48.898438 264.023438 48.34375 C 264.859375 47.785156 265.695312 47.226562 266.808594 46.949219 C 267.785156 46.53125 268.898438 46.394531 270.152344 46.394531 Z M 309.574219 46.53125 C 310.546875 46.53125 311.242188 46.8125 311.800781 47.367188 C 312.359375 47.925781 312.636719 48.757812 312.636719 49.734375 L 312.636719 72.007812 C 312.636719 72.984375 312.359375 73.679688 311.800781 74.238281 C 311.242188 74.792969 310.40625 75.210938 309.574219 75.210938 C 308.597656 75.210938 307.902344 74.933594 307.34375 74.238281 C 306.785156 73.679688 306.507812 72.84375 306.507812 72.007812 L 306.507812 69.363281 L 307.621094 69.78125 C 307.621094 70.199219 307.34375 70.757812 306.925781 71.453125 C 306.367188 72.148438 305.8125 72.707031 304.976562 73.402344 C 304.140625 74.097656 303.164062 74.515625 302.050781 75.070312 C 300.9375 75.488281 299.683594 75.769531 298.289062 75.769531 C 295.921875 75.769531 293.691406 75.210938 291.742188 73.957031 C 289.792969 72.707031 288.261719 71.035156 287.007812 68.808594 C 285.894531 66.578125 285.335938 64.074219 285.335938 61.289062 C 285.335938 58.367188 285.894531 55.859375 287.007812 53.632812 C 288.121094 51.40625 289.652344 49.734375 291.605469 48.480469 C 293.554688 47.226562 295.644531 46.671875 298.011719 46.671875 C 299.542969 46.671875 300.9375 46.949219 302.191406 47.367188 C 303.445312 47.785156 304.558594 48.34375 305.53125 49.175781 C 306.507812 49.875 307.203125 50.570312 307.761719 51.265625 C 308.320312 51.960938 308.457031 52.65625 308.457031 53.074219 L 306.507812 53.773438 L 306.507812 49.875 C 306.507812 48.898438 306.785156 48.203125 307.34375 47.644531 C 307.902344 47.089844 308.738281 46.671875 309.574219 46.671875 Z M 298.847656 69.921875 C 300.378906 69.921875 301.773438 69.503906 302.886719 68.808594 C 304 67.972656 304.976562 66.996094 305.671875 65.605469 C 306.367188 64.210938 306.648438 62.820312 306.648438 61.148438 C 306.648438 59.480469 306.367188 57.949219 305.671875 56.554688 C 304.976562 55.164062 304.140625 54.1875 302.886719 53.355469 C 301.773438 52.519531 300.378906 52.238281 298.847656 52.238281 C 297.316406 52.238281 296.0625 52.65625 294.808594 53.355469 C 293.691406 54.1875 292.71875 55.164062 292.023438 56.554688 C 291.324219 57.949219 291.046875 59.339844 291.046875 61.148438 C 291.046875 62.820312 291.324219 64.351562 292.023438 65.605469 C 292.71875 66.996094 293.554688 67.972656 294.808594 68.808594 C 295.921875 69.640625 297.316406 69.921875 298.847656 69.921875 Z M 338.125 75.210938 C 337.152344 75.210938 336.457031 74.933594 335.898438 74.238281 C 335.339844 73.679688 335.0625 72.84375 335.0625 72.007812 L 335.0625 39.433594 C 335.0625 38.457031 335.339844 37.761719 335.898438 37.203125 C 336.457031 36.648438 337.292969 36.230469 338.125 36.230469 C 339.101562 36.230469 339.796875 36.507812 340.355469 37.203125 C 340.914062 37.761719 341.191406 38.597656 341.191406 39.433594 L 341.191406 72.007812 C 341.191406 72.984375 340.914062 73.679688 340.355469 74.238281 C 339.796875 74.792969 338.960938 75.210938 338.125 75.210938 Z M 354.839844 47.089844 C 355.675781 47.089844 356.375 47.367188 356.929688 48.0625 C 357.488281 48.757812 357.765625 49.316406 357.765625 50.011719 C 357.765625 50.847656 357.347656 51.683594 356.511719 52.378906 L 340.632812 66.996094 L 340.355469 59.757812 L 352.472656 48.0625 C 353.171875 47.367188 353.867188 47.089844 354.839844 47.089844 Z M 355.675781 75.210938 C 354.703125 75.210938 354.007812 74.792969 353.308594 74.097656 L 343.558594 63.796875 L 348.296875 59.339844 L 357.765625 69.640625 C 358.464844 70.339844 358.742188 71.171875 358.742188 72.007812 C 358.742188 72.984375 358.324219 73.679688 357.628906 74.238281 C 356.929688 74.792969 356.234375 75.070312 355.539062 75.070312 Z M 390.640625 61.148438 C 390.640625 64.074219 389.941406 66.578125 388.6875 68.808594 C 387.433594 71.035156 385.625 72.707031 383.535156 73.957031 C 381.308594 75.210938 378.9375 75.769531 376.292969 75.769531 C 373.644531 75.769531 371.136719 75.210938 369.050781 73.957031 C 366.820312 72.707031 365.148438 71.035156 363.894531 68.808594 C 362.640625 66.578125 361.945312 64.074219 361.945312 61.148438 C 361.945312 58.226562 362.640625 55.71875 363.894531 53.492188 C 365.148438 51.265625 366.960938 49.59375 369.050781 48.34375 C 371.277344 47.089844 373.644531 46.53125 376.292969 46.53125 C 378.9375 46.53125 381.445312 47.089844 383.535156 48.34375 C 385.765625 49.59375 387.433594 51.265625 388.6875 53.492188 C 389.941406 55.71875 390.640625 58.226562 390.640625 61.148438 Z M 384.371094 61.148438 C 384.371094 59.339844 383.953125 57.808594 383.257812 56.417969 C 382.558594 55.164062 381.585938 54.050781 380.332031 53.355469 C 379.078125 52.65625 377.824219 52.238281 376.292969 52.238281 C 374.761719 52.238281 373.507812 52.65625 372.253906 53.355469 C 371 54.050781 370.023438 55.164062 369.328125 56.417969 C 368.632812 57.667969 368.214844 59.339844 368.214844 61.148438 C 368.214844 62.960938 368.632812 64.492188 369.328125 65.746094 C 370.023438 66.996094 371 68.109375 372.253906 68.808594 C 373.507812 69.503906 374.761719 69.921875 376.292969 69.921875 C 377.824219 69.921875 379.078125 69.503906 380.332031 68.808594 C 381.585938 68.109375 382.558594 66.996094 383.257812 65.746094 C 383.953125 64.492188 384.371094 62.820312 384.371094 61.148438 Z M 399.414062 75.210938 C 398.4375 75.210938 397.742188 74.933594 397.1875 74.238281 C 396.628906 73.679688 396.351562 72.84375 396.351562 72.007812 L 396.351562 50.152344 C 396.351562 49.175781 396.628906 48.480469 397.1875 47.925781 C 397.742188 47.367188 398.578125 46.949219 399.414062 46.949219 C 400.390625 46.949219 401.085938 47.226562 401.644531 47.925781 C 402.199219 48.480469 402.480469 49.316406 402.480469 50.152344 L 402.480469 55.164062 L 402.0625 51.683594 C 402.480469 50.847656 402.898438 50.152344 403.59375 49.457031 C 404.148438 48.757812 404.847656 48.203125 405.683594 47.785156 C 406.519531 47.367188 407.214844 47.089844 408.191406 46.8125 C 409.027344 46.53125 410 46.53125 410.835938 46.53125 C 411.949219 46.53125 412.785156 46.8125 413.484375 47.367188 C 414.179688 47.925781 414.597656 48.621094 414.597656 49.457031 C 414.597656 50.570312 414.320312 51.40625 413.761719 51.960938 C 413.203125 52.519531 412.507812 52.65625 411.8125 52.65625 C 411.113281 52.65625 410.558594 52.519531 410 52.238281 C 409.441406 51.960938 408.886719 51.824219 408.191406 51.824219 C 407.492188 51.824219 406.9375 51.960938 406.238281 52.238281 C 405.542969 52.519531 404.984375 52.9375 404.429688 53.632812 C 403.871094 54.328125 403.453125 55.023438 403.175781 56 C 402.898438 56.972656 402.617188 58.085938 402.617188 59.339844 L 402.617188 71.871094 C 402.617188 72.84375 402.339844 73.539062 401.78125 74.097656 C 401.226562 74.652344 400.390625 75.070312 399.554688 75.070312 Z M 431.3125 75.769531 C 428.386719 75.769531 425.738281 75.210938 423.511719 73.957031 C 421.28125 72.707031 419.613281 71.035156 418.496094 68.808594 C 417.382812 66.71875 416.6875 64.210938 416.6875 61.566406 C 416.6875 58.367188 417.382812 55.71875 418.636719 53.492188 C 419.890625 51.265625 421.5625 49.59375 423.652344 48.34375 C 425.738281 47.089844 427.96875 46.53125 430.199219 46.53125 C 432.007812 46.53125 433.679688 46.949219 435.351562 47.644531 C 436.882812 48.34375 438.414062 49.457031 439.667969 50.707031 C 440.921875 51.960938 441.898438 53.492188 442.59375 55.164062 C 443.289062 56.835938 443.707031 58.644531 443.707031 60.59375 C 443.707031 61.429688 443.289062 62.125 442.734375 62.679688 C 442.039062 63.238281 441.339844 63.515625 440.503906 63.515625 L 420.308594 63.515625 L 418.777344 58.226562 L 438.136719 58.226562 L 437.023438 59.339844 L 437.023438 57.949219 C 436.882812 56.972656 436.605469 56 435.910156 55.164062 C 435.210938 54.328125 434.515625 53.773438 433.539062 53.214844 C 432.566406 52.796875 431.589844 52.519531 430.476562 52.519531 C 429.363281 52.519531 428.386719 52.65625 427.550781 52.9375 C 426.574219 53.214844 425.878906 53.632812 425.183594 54.328125 C 424.488281 55.023438 423.929688 55.859375 423.652344 56.972656 C 423.234375 58.085938 423.09375 59.480469 423.09375 61.289062 C 423.09375 63.238281 423.511719 64.769531 424.347656 66.160156 C 425.183594 67.414062 426.15625 68.527344 427.410156 69.226562 C 428.664062 69.921875 430.058594 70.199219 431.449219 70.199219 C 432.703125 70.199219 433.820312 70.058594 434.515625 69.921875 C 435.351562 69.640625 435.910156 69.503906 436.328125 69.226562 C 436.742188 68.945312 437.300781 68.667969 437.578125 68.527344 C 438.277344 68.25 438.832031 68.109375 439.390625 68.109375 C 440.226562 68.109375 440.785156 68.390625 441.339844 68.945312 C 441.898438 69.503906 442.035156 70.058594 442.035156 70.757812 C 442.035156 71.730469 441.480469 72.566406 440.503906 73.402344 C 439.53125 74.238281 438.277344 74.792969 436.605469 75.488281 C 434.933594 76.046875 433.261719 76.324219 431.449219 76.324219 Z M 472.402344 46.53125 C 473.378906 46.53125 474.074219 46.8125 474.632812 47.367188 C 475.1875 47.925781 475.464844 48.757812 475.464844 49.734375 L 475.464844 72.007812 C 475.464844 72.984375 475.1875 73.679688 474.632812 74.238281 C 474.074219 74.792969 473.238281 75.210938 472.402344 75.210938 C 471.425781 75.210938 470.730469 74.933594 470.171875 74.238281 C 469.617188 73.679688 469.339844 72.84375 469.339844 72.007812 L 469.339844 69.363281 L 470.453125 69.78125 C 470.453125 70.199219 470.171875 70.757812 469.753906 71.453125 C 469.199219 72.148438 468.640625 72.707031 467.804688 73.402344 C 466.96875 74.097656 465.996094 74.515625 464.878906 75.070312 C 463.765625 75.488281 462.511719 75.769531 461.121094 75.769531 C 458.75 75.769531 456.523438 75.210938 454.574219 73.957031 C 452.625 72.707031 451.089844 71.035156 449.835938 68.808594 C 448.722656 66.578125 448.164062 64.074219 448.164062 61.289062 C 448.164062 58.367188 448.722656 55.859375 449.835938 53.632812 C 450.953125 51.40625 452.484375 49.734375 454.433594 48.480469 C 456.382812 47.226562 458.472656 46.671875 460.839844 46.671875 C 462.375 46.671875 463.765625 46.949219 465.019531 47.367188 C 466.273438 47.785156 467.386719 48.34375 468.363281 49.175781 C 469.339844 49.875 470.035156 50.570312 470.589844 51.265625 C 471.148438 51.960938 471.289062 52.65625 471.289062 53.074219 L 469.339844 53.773438 L 469.339844 49.875 C 469.339844 48.898438 469.617188 48.203125 470.171875 47.644531 C 470.730469 47.089844 471.566406 46.671875 472.402344 46.671875 Z M 461.816406 69.921875 C 463.347656 69.921875 464.742188 69.503906 465.855469 68.808594 C 466.96875 67.972656 467.945312 66.996094 468.640625 65.605469 C 469.339844 64.210938 469.617188 62.820312 469.617188 61.148438 C 469.617188 59.480469 469.339844 57.949219 468.640625 56.554688 C 467.945312 55.164062 467.109375 54.1875 465.855469 53.355469 C 464.742188 52.519531 463.347656 52.238281 461.816406 52.238281 C 460.285156 52.238281 459.03125 52.65625 457.777344 53.355469 C 456.664062 54.1875 455.6875 55.164062 454.992188 56.554688 C 454.292969 57.949219 454.015625 59.339844 454.015625 61.148438 C 454.015625 62.820312 454.292969 64.351562 454.992188 65.605469 C 455.6875 66.996094 456.523438 67.972656 457.777344 68.808594 C 458.890625 69.640625 460.285156 69.921875 461.816406 69.921875 Z M 497.613281 46.53125 C 500.261719 46.53125 502.210938 47.089844 503.601562 48.203125 C 504.996094 49.316406 505.832031 50.707031 506.390625 52.519531 C 506.945312 54.328125 507.085938 56.277344 507.085938 58.503906 L 507.085938 72.007812 C 507.085938 72.984375 506.808594 73.679688 506.25 74.238281 C 505.691406 74.792969 504.855469 75.210938 504.019531 75.210938 C 503.046875 75.210938 502.351562 74.933594 501.792969 74.238281 C 501.234375 73.679688 500.957031 72.84375 500.957031 72.007812 L 500.957031 58.503906 C 500.957031 57.390625 500.816406 56.277344 500.539062 55.304688 C 500.261719 54.328125 499.703125 53.632812 498.867188 53.074219 C 498.03125 52.519531 496.917969 52.238281 495.523438 52.238281 C 494.132812 52.238281 492.878906 52.519531 491.902344 53.074219 C 490.929688 53.632812 490.230469 54.328125 489.675781 55.304688 C 489.117188 56.277344 488.976562 57.25 488.976562 58.503906 L 488.976562 72.007812 C 488.976562 72.984375 488.699219 73.679688 488.140625 74.238281 C 487.585938 74.792969 486.75 75.210938 485.914062 75.210938 C 484.9375 75.210938 484.242188 74.933594 483.683594 74.238281 C 483.128906 73.679688 482.847656 72.84375 482.847656 72.007812 L 482.847656 50.152344 C 482.847656 49.175781 483.128906 48.480469 483.683594 47.925781 C 484.242188 47.367188 485.078125 46.949219 485.914062 46.949219 C 486.886719 46.949219 487.585938 47.226562 488.140625 47.925781 C 488.699219 48.480469 488.976562 49.316406 488.976562 50.152344 L 488.976562 52.378906 L 488.140625 52.238281 C 488.421875 51.683594 488.976562 50.988281 489.535156 50.292969 C 490.09375 49.59375 490.789062 48.898438 491.625 48.34375 C 492.460938 47.785156 493.296875 47.226562 494.410156 46.949219 C 495.386719 46.53125 496.5 46.394531 497.753906 46.394531 Z M 497.613281 46.53125 " fill-opacity="1" fill-rule="nonzero"/></g></svg>