<svg xmlns="http://www.w3.org/2000/svg" xmlns:xlink="http://www.w3.org/1999/xlink" width="600" zoomAndPan="magnify" viewBox="0 0 450 449.999984" height="600" preserveAspectRatio="xMidYMid meet" version="1.0"><defs><clipPath id="100f821709"><path d="M 191 264 L 387 264 L 387 398 L 191 398 Z M 191 264 " clip-rule="nonzero"/></clipPath><clipPath id="f7ecd7e1e7"><path d="M 289.023438 494.992188 L 125.152344 331.121094 L 259.855469 196.417969 L 423.726562 360.289062 Z M 289.023438 494.992188 " clip-rule="nonzero"/></clipPath><clipPath id="4a1b5f93c4"><path d="M 289.023438 494.992188 L 125.152344 331.121094 L 259.855469 196.417969 L 423.726562 360.289062 Z M 289.023438 494.992188 " clip-rule="nonzero"/></clipPath><clipPath id="3462ebd5b5"><path d="M 199 264 L 387 264 L 387 390 L 199 390 Z M 199 264 " clip-rule="nonzero"/></clipPath><clipPath id="f6840b64ba"><path d="M 289.023438 494.992188 L 125.152344 331.121094 L 259.855469 196.417969 L 423.726562 360.289062 Z M 289.023438 494.992188 " clip-rule="nonzero"/></clipPath><clipPath id="8a85f800d5"><path d="M 289.023438 494.992188 L 125.152344 331.121094 L 259.855469 196.417969 L 423.726562 360.289062 Z M 289.023438 494.992188 " clip-rule="nonzero"/></clipPath><clipPath id="36d74c8b13"><path d="M 206 264 L 387 264 L 387 382 L 206 382 Z M 206 264 " clip-rule="nonzero"/></clipPath><clipPath id="763fa2da8c"><path d="M 289.023438 494.992188 L 125.152344 331.121094 L 259.855469 196.417969 L 423.726562 360.289062 Z M 289.023438 494.992188 " clip-rule="nonzero"/></clipPath><clipPath id="0d76818e0f"><path d="M 289.023438 494.992188 L 125.152344 331.121094 L 259.855469 196.417969 L 423.726562 360.289062 Z M 289.023438 494.992188 " clip-rule="nonzero"/></clipPath><clipPath id="9aaa34fe7e"><path d="M 214 264 L 387 264 L 387 374 L 214 374 Z M 214 264 " clip-rule="nonzero"/></clipPath><clipPath id="1d0586ae1e"><path d="M 289.023438 494.992188 L 125.152344 331.121094 L 259.855469 196.417969 L 423.726562 360.289062 Z M 289.023438 494.992188 " clip-rule="nonzero"/></clipPath><clipPath id="7f919d793a"><path d="M 289.023438 494.992188 L 125.152344 331.121094 L 259.855469 196.417969 L 423.726562 360.289062 Z M 289.023438 494.992188 " clip-rule="nonzero"/></clipPath><clipPath id="7bc364d43c"><path d="M 222 264 L 387 264 L 387 366 L 222 366 Z M 222 264 " clip-rule="nonzero"/></clipPath><clipPath id="42c0c49ae1"><path d="M 289.023438 494.992188 L 125.152344 331.121094 L 259.855469 196.417969 L 423.726562 360.289062 Z M 289.023438 494.992188 " clip-rule="nonzero"/></clipPath><clipPath id="dd0a326377"><path d="M 289.023438 494.992188 L 125.152344 331.121094 L 259.855469 196.417969 L 423.726562 360.289062 Z M 289.023438 494.992188 " clip-rule="nonzero"/></clipPath><clipPath id="23a6f2530e"><path d="M 230 264 L 387 264 L 387 359 L 230 359 Z M 230 264 " clip-rule="nonzero"/></clipPath><clipPath id="d4c32700aa"><path d="M 289.023438 494.992188 L 125.152344 331.121094 L 259.855469 196.417969 L 423.726562 360.289062 Z M 289.023438 494.992188 " clip-rule="nonzero"/></clipPath><clipPath id="32a7b011d7"><path d="M 289.023438 494.992188 L 125.152344 331.121094 L 259.855469 196.417969 L 423.726562 360.289062 Z M 289.023438 494.992188 " clip-rule="nonzero"/></clipPath><clipPath id="adbce80d31"><path d="M 238 264 L 387 264 L 387 351 L 238 351 Z M 238 264 " clip-rule="nonzero"/></clipPath><clipPath id="682014db1b"><path d="M 289.023438 494.992188 L 125.152344 331.121094 L 259.855469 196.417969 L 423.726562 360.289062 Z M 289.023438 494.992188 " clip-rule="nonzero"/></clipPath><clipPath id="dd303a433a"><path d="M 289.023438 494.992188 L 125.152344 331.121094 L 259.855469 196.417969 L 423.726562 360.289062 Z M 289.023438 494.992188 " clip-rule="nonzero"/></clipPath><clipPath id="5654aeaacf"><path d="M 245 264 L 387 264 L 387 343 L 245 343 Z M 245 264 " clip-rule="nonzero"/></clipPath><clipPath id="4fe7b37b62"><path d="M 289.023438 494.992188 L 125.152344 331.121094 L 259.855469 196.417969 L 423.726562 360.289062 Z M 289.023438 494.992188 " clip-rule="nonzero"/></clipPath><clipPath id="ff237d2735"><path d="M 289.023438 494.992188 L 125.152344 331.121094 L 259.855469 196.417969 L 423.726562 360.289062 Z M 289.023438 494.992188 " clip-rule="nonzero"/></clipPath><clipPath id="11a9d5a984"><path d="M 253 264 L 387 264 L 387 335 L 253 335 Z M 253 264 " clip-rule="nonzero"/></clipPath><clipPath id="60712556e1"><path d="M 289.023438 494.992188 L 125.152344 331.121094 L 259.855469 196.417969 L 423.726562 360.289062 Z M 289.023438 494.992188 " clip-rule="nonzero"/></clipPath><clipPath id="98e4c577df"><path d="M 289.023438 494.992188 L 125.152344 331.121094 L 259.855469 196.417969 L 423.726562 360.289062 Z M 289.023438 494.992188 " clip-rule="nonzero"/></clipPath><clipPath id="442194191f"><path d="M 261 264 L 387 264 L 387 327 L 261 327 Z M 261 264 " clip-rule="nonzero"/></clipPath><clipPath id="325f030ce6"><path d="M 289.023438 494.992188 L 125.152344 331.121094 L 259.855469 196.417969 L 423.726562 360.289062 Z M 289.023438 494.992188 " clip-rule="nonzero"/></clipPath><clipPath id="5224fcb94e"><path d="M 289.023438 494.992188 L 125.152344 331.121094 L 259.855469 196.417969 L 423.726562 360.289062 Z M 289.023438 494.992188 " clip-rule="nonzero"/></clipPath><clipPath id="594391263c"><path d="M 54.859375 115.152344 L 296.828125 115.152344 L 296.828125 303.90625 L 54.859375 303.90625 Z M 54.859375 115.152344 " clip-rule="nonzero"/></clipPath><clipPath id="b4abe67e6b"><path d="M 55.917969 45 L 231.417969 45 L 231.417969 220.5 L 55.917969 220.5 Z M 55.917969 45 " clip-rule="nonzero"/></clipPath><clipPath id="86d9e17b55"><path d="M 143.597656 132.679688 L 314.597656 132.679688 L 314.597656 303.679688 L 143.597656 303.679688 Z M 143.597656 132.679688 " clip-rule="nonzero"/></clipPath><clipPath id="a5aa0a0a1a"><path d="M 151 132.679688 L 308 132.679688 L 308 297 L 151 297 Z M 151 132.679688 " clip-rule="nonzero"/></clipPath><clipPath id="6ab759b615"><path d="M 158 132.679688 L 300 132.679688 L 300 289 L 158 289 Z M 158 132.679688 " clip-rule="nonzero"/></clipPath><clipPath id="c51bf67ced"><path d="M 166 132.679688 L 292 132.679688 L 292 282 L 166 282 Z M 166 132.679688 " clip-rule="nonzero"/></clipPath><clipPath id="63435c5d9b"><path d="M 174 132.679688 L 285 132.679688 L 285 274 L 174 274 Z M 174 132.679688 " clip-rule="nonzero"/></clipPath><clipPath id="b2861c4251"><path d="M 181 132.679688 L 277 132.679688 L 277 266 L 181 266 Z M 181 132.679688 " clip-rule="nonzero"/></clipPath><clipPath id="687c7cd5cf"><path d="M 189 132.679688 L 270 132.679688 L 270 259 L 189 259 Z M 189 132.679688 " clip-rule="nonzero"/></clipPath><clipPath id="b561578866"><path d="M 196 132.679688 L 262 132.679688 L 262 251 L 196 251 Z M 196 132.679688 " clip-rule="nonzero"/></clipPath><clipPath id="a5e08460d4"><path d="M 204 132.679688 L 254 132.679688 L 254 244 L 204 244 Z M 204 132.679688 " clip-rule="nonzero"/></clipPath><clipPath id="ba6d29feac"><path d="M 212 132.679688 L 247 132.679688 L 247 236 L 212 236 Z M 212 132.679688 " clip-rule="nonzero"/></clipPath></defs><g clip-path="url(#100f821709)"><g clip-path="url(#f7ecd7e1e7)"><g clip-path="url(#4a1b5f93c4)"><path fill="#4dc591" d="M 386.714844 393.304688 L 386.714844 397.210938 L 191.242188 397.210938 L 191.242188 264.660156 L 195.148438 264.660156 L 195.148438 393.300781 Z M 386.714844 393.304688 " fill-opacity="1" fill-rule="nonzero"/></g></g></g><g clip-path="url(#3462ebd5b5)"><g clip-path="url(#f6840b64ba)"><g clip-path="url(#8a85f800d5)"><path fill="#4dc591" d="M 386.714844 385.488281 L 386.714844 389.394531 L 199.058594 389.394531 L 199.058594 264.199219 L 202.964844 264.199219 L 202.964844 385.488281 Z M 386.714844 385.488281 " fill-opacity="1" fill-rule="nonzero"/></g></g></g><g clip-path="url(#36d74c8b13)"><g clip-path="url(#763fa2da8c)"><g clip-path="url(#0d76818e0f)"><path fill="#4dc591" d="M 386.714844 377.671875 L 386.714844 381.578125 L 206.871094 381.578125 L 206.871094 264.183594 L 210.78125 264.183594 L 210.78125 377.671875 Z M 386.714844 377.671875 " fill-opacity="1" fill-rule="nonzero"/></g></g></g><g clip-path="url(#9aaa34fe7e)"><g clip-path="url(#1d0586ae1e)"><g clip-path="url(#7f919d793a)"><path fill="#4dc591" d="M 386.714844 369.855469 L 386.714844 373.765625 L 214.6875 373.765625 L 214.6875 264.183594 L 218.59375 264.183594 L 218.59375 369.855469 Z M 386.714844 369.855469 " fill-opacity="1" fill-rule="nonzero"/></g></g></g><g clip-path="url(#7bc364d43c)"><g clip-path="url(#42c0c49ae1)"><g clip-path="url(#dd0a326377)"><path fill="#4dc591" d="M 386.714844 362.042969 L 386.714844 365.949219 L 222.503906 365.949219 L 222.503906 264.183594 L 226.410156 264.183594 L 226.410156 362.042969 Z M 386.714844 362.042969 " fill-opacity="1" fill-rule="nonzero"/></g></g></g><g clip-path="url(#23a6f2530e)"><g clip-path="url(#d4c32700aa)"><g clip-path="url(#32a7b011d7)"><path fill="#4dc591" d="M 386.714844 354.226562 L 386.714844 358.132812 L 230.316406 358.132812 L 230.316406 264.183594 L 234.226562 264.183594 L 234.226562 354.226562 Z M 386.714844 354.226562 " fill-opacity="1" fill-rule="nonzero"/></g></g></g><g clip-path="url(#adbce80d31)"><g clip-path="url(#682014db1b)"><g clip-path="url(#dd303a433a)"><path fill="#4dc591" d="M 386.714844 346.410156 L 386.714844 350.316406 L 238.132812 350.316406 L 238.132812 264.183594 L 242.042969 264.183594 L 242.042969 346.410156 Z M 386.714844 346.410156 " fill-opacity="1" fill-rule="nonzero"/></g></g></g><g clip-path="url(#5654aeaacf)"><g clip-path="url(#4fe7b37b62)"><g clip-path="url(#ff237d2735)"><path fill="#4dc591" d="M 386.714844 338.59375 L 386.714844 342.503906 L 245.949219 342.503906 L 245.949219 264.183594 L 249.855469 264.183594 L 249.855469 338.59375 Z M 386.714844 338.59375 " fill-opacity="1" fill-rule="nonzero"/></g></g></g><g clip-path="url(#11a9d5a984)"><g clip-path="url(#60712556e1)"><g clip-path="url(#98e4c577df)"><path fill="#4dc591" d="M 386.714844 330.78125 L 386.714844 334.6875 L 253.765625 334.6875 L 253.765625 264.183594 L 257.671875 264.183594 L 257.671875 330.78125 Z M 386.714844 330.78125 " fill-opacity="1" fill-rule="nonzero"/></g></g></g><g clip-path="url(#442194191f)"><g clip-path="url(#325f030ce6)"><g clip-path="url(#5224fcb94e)"><path fill="#4dc591" d="M 386.714844 322.964844 L 386.714844 326.871094 L 261.578125 326.871094 L 261.578125 264.183594 L 265.488281 264.183594 L 265.488281 322.964844 Z M 386.714844 322.964844 " fill-opacity="1" fill-rule="nonzero"/></g></g></g><g clip-path="url(#594391263c)"><path fill="#ffffff" d="M 54.859375 115.152344 L 296.703125 115.152344 L 296.703125 303.90625 L 54.859375 303.90625 Z M 54.859375 115.152344 " fill-opacity="1" fill-rule="nonzero"/></g><g clip-path="url(#b4abe67e6b)"><path fill="#4dc591" d="M 143.582031 220.332031 C 95.246094 220.332031 55.917969 181.003906 55.917969 132.664062 C 55.917969 84.328125 95.246094 45 143.582031 45 C 191.921875 45 231.25 84.328125 231.25 132.664062 L 227.464844 132.664062 C 227.464844 86.414062 189.835938 48.785156 143.582031 48.785156 C 97.332031 48.785156 59.703125 86.414062 59.703125 132.664062 C 59.703125 178.917969 97.332031 216.546875 143.582031 216.546875 Z M 143.582031 220.332031 " fill-opacity="1" fill-rule="nonzero"/></g><path fill="#4dc591" d="M 143.582031 212.761719 C 99.417969 212.761719 63.488281 176.832031 63.488281 132.664062 C 63.488281 88.5 99.417969 52.570312 143.582031 52.570312 C 187.75 52.570312 223.679688 88.5 223.679688 132.664062 L 219.894531 132.664062 C 219.894531 90.585938 185.660156 56.355469 143.582031 56.355469 C 101.503906 56.355469 67.273438 90.585938 67.273438 132.664062 C 67.273438 174.746094 101.503906 208.976562 143.582031 208.976562 Z M 143.582031 212.761719 " fill-opacity="1" fill-rule="nonzero"/><path fill="#4dc591" d="M 143.582031 205.191406 C 103.59375 205.191406 71.054688 172.65625 71.054688 132.664062 C 71.054688 92.675781 103.59375 60.140625 143.582031 60.140625 C 183.574219 60.140625 216.109375 92.675781 216.109375 132.664062 L 212.324219 132.664062 C 212.324219 94.761719 181.488281 63.921875 143.582031 63.921875 C 105.679688 63.921875 74.839844 94.761719 74.839844 132.664062 C 74.839844 170.570312 105.679688 201.410156 143.582031 201.410156 Z M 143.582031 205.191406 " fill-opacity="1" fill-rule="nonzero"/><path fill="#4dc591" d="M 143.582031 197.625 C 107.765625 197.625 78.625 168.484375 78.625 132.664062 C 78.625 96.847656 107.765625 67.707031 143.582031 67.707031 C 179.402344 67.707031 208.542969 96.847656 208.542969 132.664062 L 204.757812 132.664062 C 204.757812 98.933594 177.3125 71.492188 143.582031 71.492188 C 109.851562 71.492188 82.410156 98.933594 82.410156 132.664062 C 82.410156 166.398438 109.851562 193.839844 143.582031 193.839844 Z M 143.582031 197.625 " fill-opacity="1" fill-rule="nonzero"/><path fill="#4dc591" d="M 143.582031 190.054688 C 111.941406 190.054688 86.195312 164.308594 86.195312 132.664062 C 86.195312 101.023438 111.941406 75.277344 143.582031 75.277344 C 175.226562 75.277344 200.972656 101.023438 200.972656 132.664062 L 197.1875 132.664062 C 197.1875 103.109375 173.140625 79.0625 143.582031 79.0625 C 114.027344 79.0625 89.980469 103.109375 89.980469 132.664062 C 89.980469 162.222656 114.027344 186.269531 143.582031 186.269531 Z M 143.582031 190.054688 " fill-opacity="1" fill-rule="nonzero"/><path fill="#4dc591" d="M 143.582031 182.484375 C 116.113281 182.484375 93.765625 160.136719 93.765625 132.664062 C 93.765625 105.195312 116.113281 82.847656 143.582031 82.847656 C 171.054688 82.847656 193.402344 105.195312 193.402344 132.664062 L 189.617188 132.664062 C 189.617188 107.28125 168.964844 86.632812 143.582031 86.632812 C 118.199219 86.632812 97.550781 107.28125 97.550781 132.664062 C 97.550781 158.050781 118.199219 178.699219 143.582031 178.699219 Z M 143.582031 182.484375 " fill-opacity="1" fill-rule="nonzero"/><path fill="#4dc591" d="M 143.582031 174.914062 C 120.285156 174.914062 101.335938 155.960938 101.335938 132.664062 C 101.335938 109.371094 120.285156 90.417969 143.582031 90.417969 C 166.878906 90.417969 185.832031 109.371094 185.832031 132.664062 L 182.046875 132.664062 C 182.046875 111.457031 164.792969 94.203125 143.582031 94.203125 C 122.375 94.203125 105.117188 111.457031 105.117188 132.664062 C 105.117188 153.875 122.375 171.128906 143.582031 171.128906 Z M 143.582031 174.914062 " fill-opacity="1" fill-rule="nonzero"/><path fill="#4dc591" d="M 143.582031 167.347656 C 124.460938 167.347656 108.902344 151.789062 108.902344 132.664062 C 108.902344 113.542969 124.460938 97.984375 143.582031 97.984375 C 162.707031 97.984375 178.261719 113.542969 178.261719 132.664062 L 174.480469 132.664062 C 174.480469 115.628906 160.617188 101.769531 143.582031 101.769531 C 126.546875 101.769531 112.6875 115.628906 112.6875 132.664062 C 112.6875 149.703125 126.546875 163.5625 143.582031 163.5625 Z M 143.582031 167.347656 " fill-opacity="1" fill-rule="nonzero"/><path fill="#4dc591" d="M 143.582031 159.777344 C 128.632812 159.777344 116.472656 147.613281 116.472656 132.664062 C 116.472656 117.71875 128.632812 105.554688 143.582031 105.554688 C 158.53125 105.554688 170.695312 117.71875 170.695312 132.664062 L 166.910156 132.664062 C 166.910156 119.804688 156.445312 109.339844 143.582031 109.339844 C 130.722656 109.339844 120.257812 119.804688 120.257812 132.664062 C 120.257812 145.527344 130.722656 155.992188 143.582031 155.992188 Z M 143.582031 159.777344 " fill-opacity="1" fill-rule="nonzero"/><path fill="#4dc591" d="M 143.582031 152.207031 C 132.808594 152.207031 124.042969 143.441406 124.042969 132.664062 C 124.042969 121.890625 132.808594 113.125 143.582031 113.125 C 154.359375 113.125 163.125 121.890625 163.125 132.664062 L 159.339844 132.664062 C 159.339844 123.976562 152.273438 116.910156 143.582031 116.910156 C 134.894531 116.910156 127.828125 123.976562 127.828125 132.664062 C 127.828125 141.355469 134.894531 148.421875 143.582031 148.421875 Z M 143.582031 152.207031 " fill-opacity="1" fill-rule="nonzero"/><g clip-path="url(#86d9e17b55)"><path fill="#4dc591" d="M 314.785156 303.902344 L 143.628906 303.902344 L 143.628906 132.75 L 243.933594 132.75 L 243.933594 136.550781 L 147.433594 136.550781 L 147.433594 300.097656 L 310.980469 300.097656 L 310.980469 132.679688 L 314.785156 132.679688 Z M 314.785156 303.902344 " fill-opacity="1" fill-rule="nonzero"/></g><g clip-path="url(#a5aa0a0a1a)"><path fill="#4dc591" d="M 307.175781 296.296875 L 151.238281 296.296875 L 151.238281 140.355469 L 243.863281 140.355469 L 243.863281 144.160156 L 155.039062 144.160156 L 155.039062 292.492188 L 303.375 292.492188 L 303.375 132.679688 L 307.175781 132.679688 Z M 307.175781 296.296875 " fill-opacity="1" fill-rule="nonzero"/></g><g clip-path="url(#6ab759b615)"><path fill="#4dc591" d="M 299.570312 288.6875 L 158.84375 288.6875 L 158.84375 147.960938 L 243.933594 147.960938 L 243.933594 151.765625 L 162.648438 151.765625 L 162.648438 284.886719 L 295.765625 284.886719 L 295.765625 132.679688 L 299.570312 132.679688 Z M 299.570312 288.6875 " fill-opacity="1" fill-rule="nonzero"/></g><g clip-path="url(#c51bf67ced)"><path fill="#4dc591" d="M 291.964844 281.082031 L 166.449219 281.082031 L 166.449219 155.570312 L 244.421875 155.570312 L 244.421875 159.371094 L 170.253906 159.371094 L 170.253906 277.277344 L 288.160156 277.277344 L 288.160156 132.679688 L 291.964844 132.679688 Z M 291.964844 281.082031 " fill-opacity="1" fill-rule="nonzero"/></g><g clip-path="url(#63435c5d9b)"><path fill="#4dc591" d="M 284.355469 273.472656 L 174.058594 273.472656 L 174.058594 163.175781 L 244.421875 163.175781 L 244.421875 166.980469 L 177.859375 166.980469 L 177.859375 269.671875 L 280.554688 269.671875 L 280.554688 132.679688 L 284.355469 132.679688 Z M 284.355469 273.472656 " fill-opacity="1" fill-rule="nonzero"/></g><g clip-path="url(#b2861c4251)"><path fill="#4dc591" d="M 276.75 265.867188 L 181.664062 265.867188 L 181.664062 170.78125 L 243.933594 170.78125 L 243.933594 174.585938 L 185.46875 174.585938 L 185.46875 262.0625 L 272.945312 262.0625 L 272.945312 132.679688 L 276.75 132.679688 Z M 276.75 265.867188 " fill-opacity="1" fill-rule="nonzero"/></g><g clip-path="url(#687c7cd5cf)"><path fill="#4dc591" d="M 269.144531 258.261719 L 189.269531 258.261719 L 189.269531 178.390625 L 244.003906 178.390625 L 244.003906 182.191406 L 193.074219 182.191406 L 193.074219 254.457031 L 265.339844 254.457031 L 265.339844 132.679688 L 269.144531 132.679688 Z M 269.144531 258.261719 " fill-opacity="1" fill-rule="nonzero"/></g><g clip-path="url(#b561578866)"><path fill="#4dc591" d="M 261.535156 250.652344 L 196.878906 250.652344 L 196.878906 185.996094 L 243.789062 185.996094 L 243.789062 189.800781 L 200.679688 189.800781 L 200.679688 246.851562 L 257.734375 246.851562 L 257.734375 132.679688 L 261.535156 132.679688 Z M 261.535156 250.652344 " fill-opacity="1" fill-rule="nonzero"/></g><g clip-path="url(#a5e08460d4)"><path fill="#4dc591" d="M 253.929688 243.046875 L 204.484375 243.046875 L 204.484375 193.601562 L 243.789062 193.601562 L 243.789062 197.40625 L 208.289062 197.40625 L 208.289062 239.242188 L 250.125 239.242188 L 250.125 132.679688 L 253.929688 132.679688 Z M 253.929688 243.046875 " fill-opacity="1" fill-rule="nonzero"/></g><g clip-path="url(#ba6d29feac)"><path fill="#4dc591" d="M 246.324219 235.441406 L 212.089844 235.441406 L 212.089844 201.210938 L 242.519531 201.210938 L 242.519531 132.679688 L 246.324219 132.679688 Z M 215.894531 231.636719 L 242.519531 231.636719 L 242.519531 205.011719 L 215.894531 205.011719 Z M 215.894531 231.636719 " fill-opacity="1" fill-rule="nonzero"/></g></svg>